<svg xmlns="http://www.w3.org/2000/svg" fill="black" viewBox="0 0 400 400"><circle  fill="black"  cx="200" cy="200" r="200" />
<path fill="#3f3" d="m283.93 237.24h6.6701q0 29.275-9.6347 42.616-9.4498 13.34-23.717 13.34-11.673 0-22.42-8.7085-10.746-8.8936-19.269-47.248l-15.935-71.891-55.215 125.25h-35.019l79.302-170.83q-6.2996-33.166-15.193-49.101-8.8936-15.934-22.048-15.934-10.561 0-18.528 8.1525-7.7823 7.9673-8.7088 24.828h-6.6701q0.5282-27.237 10.932-43.542 10.376-16.49 25.94-16.49 10.005 0 18.899 8.3378 9.0788 8.1526 15.564 28.163 6.6702 19.826 20.567 82.452l13.155 58.735q7.9673 36.501 16.676 48.915 8.893 12.229 21.122 12.229 20.751 0 23.531-29.275z"/></svg>